<mxfile host="app.diagrams.net" modified="2023-08-02T19:08:46.563Z" agent="Mozilla/5.0 (Windows NT 10.0; Win64; x64) AppleWebKit/537.36 (KHTML, like Gecko) Chrome/114.0.0.0 YaBrowser/23.7.1.1140 Yowser/2.5 Safari/537.36" etag="GAcT2Ncd7xrQqe25gvYU" version="21.5.2" type="device">
  <diagram id="C5RBs43oDa-KdzZeNtuy" name="Page-1">
    <mxGraphModel dx="1386" dy="767" grid="1" gridSize="10" guides="1" tooltips="1" connect="1" arrows="1" fold="1" page="1" pageScale="1" pageWidth="827" pageHeight="1169" math="0" shadow="0">
      <root>
        <mxCell id="WIyWlLk6GJQsqaUBKTNV-0" />
        <mxCell id="WIyWlLk6GJQsqaUBKTNV-1" parent="WIyWlLk6GJQsqaUBKTNV-0" />
        <mxCell id="Gz1enpvMDDhrUXzlLfhw-2" value="" style="edgeStyle=orthogonalEdgeStyle;rounded=0;orthogonalLoop=1;jettySize=auto;html=1;" edge="1" parent="WIyWlLk6GJQsqaUBKTNV-1" source="Gz1enpvMDDhrUXzlLfhw-0" target="Gz1enpvMDDhrUXzlLfhw-1">
          <mxGeometry relative="1" as="geometry" />
        </mxCell>
        <mxCell id="Gz1enpvMDDhrUXzlLfhw-0" value="TestArr = [&#39;1234&#39;,&#39;qq&#39;,&#39;re334d&#39;,&#39;23&#39;,her&#39;]&lt;br&gt;ResultArr = []&lt;br&gt;i = 0&lt;br&gt;index = 0" style="rounded=0;whiteSpace=wrap;html=1;" vertex="1" parent="WIyWlLk6GJQsqaUBKTNV-1">
          <mxGeometry x="280" y="110" width="260" height="70" as="geometry" />
        </mxCell>
        <mxCell id="Gz1enpvMDDhrUXzlLfhw-5" value="" style="edgeStyle=orthogonalEdgeStyle;rounded=0;orthogonalLoop=1;jettySize=auto;html=1;" edge="1" parent="WIyWlLk6GJQsqaUBKTNV-1" source="Gz1enpvMDDhrUXzlLfhw-1" target="Gz1enpvMDDhrUXzlLfhw-3">
          <mxGeometry relative="1" as="geometry" />
        </mxCell>
        <mxCell id="Gz1enpvMDDhrUXzlLfhw-12" value="" style="edgeStyle=orthogonalEdgeStyle;rounded=0;orthogonalLoop=1;jettySize=auto;html=1;" edge="1" parent="WIyWlLk6GJQsqaUBKTNV-1" source="Gz1enpvMDDhrUXzlLfhw-1" target="Gz1enpvMDDhrUXzlLfhw-11">
          <mxGeometry relative="1" as="geometry" />
        </mxCell>
        <mxCell id="Gz1enpvMDDhrUXzlLfhw-1" value="i &amp;lt; TestArr.Length" style="rhombus;whiteSpace=wrap;html=1;" vertex="1" parent="WIyWlLk6GJQsqaUBKTNV-1">
          <mxGeometry x="340" y="220" width="140" height="80" as="geometry" />
        </mxCell>
        <mxCell id="Gz1enpvMDDhrUXzlLfhw-6" value="" style="edgeStyle=orthogonalEdgeStyle;rounded=0;orthogonalLoop=1;jettySize=auto;html=1;" edge="1" parent="WIyWlLk6GJQsqaUBKTNV-1" source="Gz1enpvMDDhrUXzlLfhw-3" target="Gz1enpvMDDhrUXzlLfhw-4">
          <mxGeometry relative="1" as="geometry" />
        </mxCell>
        <mxCell id="Gz1enpvMDDhrUXzlLfhw-9" style="edgeStyle=orthogonalEdgeStyle;rounded=0;orthogonalLoop=1;jettySize=auto;html=1;entryX=0.5;entryY=0;entryDx=0;entryDy=0;" edge="1" parent="WIyWlLk6GJQsqaUBKTNV-1" source="Gz1enpvMDDhrUXzlLfhw-3" target="Gz1enpvMDDhrUXzlLfhw-8">
          <mxGeometry relative="1" as="geometry" />
        </mxCell>
        <mxCell id="Gz1enpvMDDhrUXzlLfhw-3" value="&lt;div style=&quot;line-height: 19px;&quot;&gt;&lt;font style=&quot;font-size: 12px;&quot; color=&quot;#d4d4d4&quot;&gt;TestArr[i].ToString().ToCharArray().Length&amp;lt;4&lt;/font&gt;&lt;br&gt;&lt;/div&gt;" style="rhombus;whiteSpace=wrap;html=1;" vertex="1" parent="WIyWlLk6GJQsqaUBKTNV-1">
          <mxGeometry x="250" y="340" width="320" height="80" as="geometry" />
        </mxCell>
        <mxCell id="Gz1enpvMDDhrUXzlLfhw-7" style="edgeStyle=orthogonalEdgeStyle;rounded=0;orthogonalLoop=1;jettySize=auto;html=1;entryX=0;entryY=0.5;entryDx=0;entryDy=0;" edge="1" parent="WIyWlLk6GJQsqaUBKTNV-1" source="Gz1enpvMDDhrUXzlLfhw-4" target="Gz1enpvMDDhrUXzlLfhw-1">
          <mxGeometry relative="1" as="geometry">
            <Array as="points">
              <mxPoint x="160" y="500" />
              <mxPoint x="160" y="260" />
            </Array>
          </mxGeometry>
        </mxCell>
        <mxCell id="Gz1enpvMDDhrUXzlLfhw-4" value="ResultArr[index] = TestArr[i]&lt;br&gt;i ++&lt;br&gt;index++" style="rounded=0;whiteSpace=wrap;html=1;" vertex="1" parent="WIyWlLk6GJQsqaUBKTNV-1">
          <mxGeometry x="295" y="470" width="230" height="60" as="geometry" />
        </mxCell>
        <mxCell id="Gz1enpvMDDhrUXzlLfhw-10" style="edgeStyle=orthogonalEdgeStyle;rounded=0;orthogonalLoop=1;jettySize=auto;html=1;entryX=0;entryY=0.5;entryDx=0;entryDy=0;" edge="1" parent="WIyWlLk6GJQsqaUBKTNV-1" source="Gz1enpvMDDhrUXzlLfhw-8" target="Gz1enpvMDDhrUXzlLfhw-1">
          <mxGeometry relative="1" as="geometry">
            <Array as="points">
              <mxPoint x="640" y="570" />
              <mxPoint x="160" y="570" />
              <mxPoint x="160" y="260" />
            </Array>
          </mxGeometry>
        </mxCell>
        <mxCell id="Gz1enpvMDDhrUXzlLfhw-8" value="i ++" style="rounded=0;whiteSpace=wrap;html=1;" vertex="1" parent="WIyWlLk6GJQsqaUBKTNV-1">
          <mxGeometry x="590" y="470" width="100" height="60" as="geometry" />
        </mxCell>
        <mxCell id="Gz1enpvMDDhrUXzlLfhw-11" value="print ResultArr" style="rounded=1;whiteSpace=wrap;html=1;" vertex="1" parent="WIyWlLk6GJQsqaUBKTNV-1">
          <mxGeometry x="590" y="230" width="120" height="60" as="geometry" />
        </mxCell>
        <mxCell id="Gz1enpvMDDhrUXzlLfhw-13" value="yes" style="text;html=1;align=center;verticalAlign=middle;resizable=0;points=[];autosize=1;strokeColor=none;fillColor=none;" vertex="1" parent="WIyWlLk6GJQsqaUBKTNV-1">
          <mxGeometry x="414" y="300" width="40" height="30" as="geometry" />
        </mxCell>
        <mxCell id="Gz1enpvMDDhrUXzlLfhw-14" value="yes" style="text;html=1;align=center;verticalAlign=middle;resizable=0;points=[];autosize=1;strokeColor=none;fillColor=none;" vertex="1" parent="WIyWlLk6GJQsqaUBKTNV-1">
          <mxGeometry x="420" y="430" width="40" height="30" as="geometry" />
        </mxCell>
        <mxCell id="Gz1enpvMDDhrUXzlLfhw-15" value="no" style="text;html=1;align=center;verticalAlign=middle;resizable=0;points=[];autosize=1;strokeColor=none;fillColor=none;" vertex="1" parent="WIyWlLk6GJQsqaUBKTNV-1">
          <mxGeometry x="590" y="340" width="40" height="30" as="geometry" />
        </mxCell>
        <mxCell id="Gz1enpvMDDhrUXzlLfhw-17" value="no" style="text;html=1;align=center;verticalAlign=middle;resizable=0;points=[];autosize=1;strokeColor=none;fillColor=none;" vertex="1" parent="WIyWlLk6GJQsqaUBKTNV-1">
          <mxGeometry x="480" y="220" width="40" height="30" as="geometry" />
        </mxCell>
      </root>
    </mxGraphModel>
  </diagram>
</mxfile>
